<svg width="14" height="14" viewBox="0 0 14 14" fill="none" xmlns="http://www.w3.org/2000/svg">
<path d="M11.3333 12.0208C11.3333 11.2649 11.3333 10.887 11.2401 10.5794C11.03 9.88694 10.4881 9.345 9.79559 9.13494C9.48804 9.04167 9.11011 9.04167 8.35416 9.04167H5.64583C4.8899 9.04167 4.51193 9.04167 4.20438 9.13494C3.51191 9.345 2.97002 9.88694 2.75996 10.5794C2.66666 10.887 2.66666 11.2649 2.66666 12.0208M9.4375 4.70833C9.4375 6.05453 8.3462 7.14583 7 7.14583C5.6538 7.14583 4.5625 6.05453 4.5625 4.70833C4.5625 3.36214 5.6538 2.27083 7 2.27083C8.3462 2.27083 9.4375 3.36214 9.4375 4.70833Z" stroke="white" stroke-width="1.5" stroke-linecap="round" stroke-linejoin="round"/>
</svg>
