<svg width="24" height="24" viewBox="0 0 24 24" fill="none" xmlns="http://www.w3.org/2000/svg">
<g clip-path="url(#clip0_586_89)">
<path d="M5 12H19M12 5V19M8.73333 5H15.2667C16.5735 5 17.2268 5 17.726 5.25432C18.1651 5.47802 18.522 5.83498 18.7457 6.27402C19 6.77315 19 7.42654 19 8.73333V15.2667C19 16.5735 19 17.2268 18.7457 17.726C18.522 18.1651 18.1651 18.522 17.726 18.7457C17.2268 19 16.5735 19 15.2667 19H8.73333C7.42654 19 6.77315 19 6.27402 18.7457C5.83498 18.522 5.47802 18.1651 5.25432 17.726C5 17.2268 5 16.5735 5 15.2667V8.73333C5 7.42654 5 6.77315 5.25432 6.27402C5.47802 5.83498 5.83498 5.47802 6.27402 5.25432C6.77315 5 7.42654 5 8.73333 5Z" stroke="white" stroke-width="2" stroke-linecap="round" stroke-linejoin="round"/>
</g>
<defs>
<clipPath id="clip0_586_89">
<rect width="24" height="24" fill="white"/>
</clipPath>
</defs>
</svg>
