<svg width="25" height="25" viewBox="0 0 25 25" fill="none" xmlns="http://www.w3.org/2000/svg">
<path d="M8.96875 9.34644C8.70564 10.0061 8.80631 10.7774 9.27344 11.3503L9.41113 11.5017L10.6729 12.7644C10.1607 13.2836 9.84385 13.9971 9.84375 14.7839C9.84398 16.3719 11.1317 17.6589 12.7197 17.6589C14.3077 17.6589 15.5955 16.3718 15.5957 14.7839C15.5956 13.9969 15.278 13.2836 14.7656 12.7644L16.0293 11.5017C16.6116 10.919 16.7584 10.0662 16.4717 9.34644H22V20.2205H3.43945V9.34644H8.96875ZM12.7197 5.19702C13.2718 5.19715 13.7195 5.64499 13.7197 6.19702V9.57202L13.9072 9.38452C14.2977 8.99443 14.9308 8.99447 15.3213 9.38452C15.7117 9.77494 15.7115 10.408 15.3213 10.7986L13.4268 12.6931C13.0362 13.0836 12.4032 13.0836 12.0127 12.6931L10.1182 10.7986L10.0498 10.7234C9.72914 10.3306 9.75194 9.75075 10.1182 9.38452C10.4843 9.01884 11.0634 8.99604 11.4561 9.31616L11.5322 9.38452L11.7197 9.57202V6.19702C11.7199 5.64497 12.1677 5.19713 12.7197 5.19702Z" fill="white"/>
</svg>
