<svg width="100" height="100" viewBox="0 0 100 100" fill="none" xmlns="http://www.w3.org/2000/svg">
<path d="M49.5557 0C76.9241 0.000210285 99.1104 22.1872 99.1104 49.5557C99.1101 76.924 76.924 99.1101 49.5557 99.1104C22.1872 99.1104 0.000228869 76.9241 0 49.5557C0 22.1871 22.1871 0 49.5557 0ZM49.5527 30.5127C39.0173 30.5127 30.4768 39.0535 30.4766 49.5889C30.4766 60.1245 39.0171 68.666 49.5527 68.666C60.0882 68.6659 68.6289 60.1244 68.6289 49.5889C68.6287 39.0535 60.0881 30.5128 49.5527 30.5127Z" fill="white"/>
<path fill-rule="evenodd" clip-rule="evenodd" d="M65.6352 46.7358V52.072C65.6352 55.3688 62.9611 58.0453 59.6625 58.0453C56.364 58.0453 53.6898 55.3688 53.6898 52.072V46.7358C53.6898 43.439 56.364 40.7625 59.6625 40.7625C62.9611 40.7625 65.6352 43.439 65.6352 46.7358Z" fill="white"/>
<path fill-rule="evenodd" clip-rule="evenodd" d="M39.3275 98.0522C21.2483 94.2526 6.78117 80.5839 1.83838 62.9514C6.3756 54.9549 14.9748 49.5552 24.8224 49.5552C39.4036 49.5552 51.2409 61.3932 51.2409 75.9744C51.2409 85.1997 46.5009 93.3267 39.3275 98.0522Z" fill="white"/>
</svg>
