<svg width="24" height="24" viewBox="0 0 24 24" fill="none" xmlns="http://www.w3.org/2000/svg">
<path d="M13.5655 3.45428C13.8925 2.59542 15.1075 2.59542 15.4345 3.45428L16.6845 6.73684C16.786 7.00345 16.9966 7.21401 17.2632 7.31553L20.5457 8.56546C21.4046 8.8925 21.4046 10.1075 20.5457 10.4345L17.2632 11.6845C16.9966 11.786 16.786 11.9966 16.6845 12.2632L15.4345 15.5457C15.1075 16.4046 13.8925 16.4046 13.5655 15.5457L12.3155 12.2632C12.214 11.9966 12.0034 11.786 11.7368 11.6845L8.45428 10.4345C7.59542 10.1075 7.59542 8.8925 8.45428 8.56546L11.7368 7.31553C12.0034 7.21401 12.214 7.00345 12.3155 6.73684L13.5655 3.45428Z" stroke="white" stroke-width="2" stroke-linejoin="round"/>
<path d="M5.56546 14.4543C5.8925 13.5954 7.1075 13.5954 7.43454 14.4543L7.85716 15.5642C7.95868 15.8308 8.16924 16.0413 8.43585 16.1428L9.54572 16.5655C10.4046 16.8925 10.4046 18.1075 9.54572 18.4345L8.43585 18.8572C8.16924 18.9587 7.95868 19.1692 7.85716 19.4358L7.43454 20.5457C7.1075 21.4046 5.8925 21.4046 5.56546 20.5457L5.14284 19.4358C5.04132 19.1692 4.83076 18.9587 4.56415 18.8572L3.45428 18.4345C2.59542 18.1075 2.59542 16.8925 3.45428 16.5655L4.56415 16.1428C4.83076 16.0413 5.04132 15.8308 5.14284 15.5642L5.56546 14.4543Z" stroke="white" stroke-width="2" stroke-linejoin="round"/>
</svg>
